<?xml version="1.0" standalone="no"?>
<!DOCTYPE svg PUBLIC "-//W3C//DTD SVG 20010904//EN"
 "http://www.w3.org/TR/2001/REC-SVG-20010904/DTD/svg10.dtd">
<svg version="1.0" xmlns="http://www.w3.org/2000/svg"
 width="640.000000pt" height="640.000000pt" viewBox="0 0 640.000000 640.000000"
 preserveAspectRatio="xMidYMid meet">
<metadata>
Created by potrace 1.11, written by Peter Selinger 2001-2013
</metadata>
<g transform="translate(0.000000,640.000000) scale(0.100000,-0.100000)"
fill="#000000" stroke="none">
<path d="M0 3200 l0 -3200 1685 0 c1594 0 1685 1 1694 17 5 10 9 21 10 26 1 4
1 8 2 10 0 1 2 12 5 24 2 11 15 63 28 115 13 51 27 113 31 138 10 74 11 77 36
138 5 13 9 33 9 46 0 13 7 29 15 36 8 7 15 28 15 46 0 19 4 42 9 52 28 56 53
242 32 242 -10 0 -16 -22 -12 -44 4 -18 -9 -56 -19 -56 -6 0 -10 14 -10 30 0
17 -4 30 -10 30 -13 0 -32 -38 -25 -50 4 -6 -1 -13 -9 -16 -9 -4 -16 -18 -16
-34 0 -16 -6 -31 -12 -34 -7 -3 -2 -3 10 0 22 5 23 4 11 -18 -6 -12 -17 -26
-22 -30 -6 -3 -10 -20 -10 -37 0 -16 -4 -28 -8 -25 -12 7 -31 -34 -23 -48 4
-7 3 -8 -4 -4 -18 11 -15 75 3 82 18 7 20 50 3 60 -7 4 -8 3 -4 -5 12 -18 -4
-51 -24 -51 -10 0 -21 -8 -23 -17 -4 -17 -5 -17 -6 0 0 9 -6 17 -12 17 -7 0
-8 -7 -4 -17 4 -10 10 -28 12 -40 3 -13 13 -23 22 -24 9 0 11 -3 5 -5 -6 -3
-31 2 -55 10 -50 17 -63 13 -55 -20 5 -17 2 -24 -9 -24 -11 0 -15 -11 -15 -40
0 -22 -5 -40 -10 -40 -6 0 -8 -11 -4 -28 5 -19 3 -24 -4 -17 -6 6 -14 22 -17
38 -5 20 -3 27 8 27 10 0 13 7 10 23 -3 13 1 30 9 38 14 15 22 59 10 59 -8 0
-32 -72 -32 -96 0 -47 -33 16 -122 232 -175 428 -259 607 -403 864 -207 370
-439 722 -650 989 -142 179 -145 184 -145 238 0 113 151 323 233 323 14 0 17
-7 16 -32 -1 -29 5 -116 16 -214 4 -43 42 -99 155 -234 174 -205 311 -328 580
-517 125 -87 274 -196 280 -202 3 -3 32 -28 65 -56 33 -27 69 -58 80 -68 11
-10 39 -33 61 -50 23 -17 46 -44 52 -58 6 -17 30 -39 63 -57 110 -62 159 -96
159 -111 0 -9 7 -29 15 -45 21 -39 19 -69 -5 -91 -11 -10 -20 -26 -19 -34 1
-9 1 -41 0 -71 l-1 -55 -45 79 c-25 43 -45 80 -45 82 0 14 -169 234 -180 234
-21 0 -84 -101 -158 -251 -45 -92 -82 -171 -82 -176 0 -5 11 -16 25 -23 14 -7
25 -17 25 -22 0 -4 5 -8 10 -8 6 0 45 -22 88 -48 84 -53 234 -127 294 -145 18
-6 28 11 28 46 0 12 16 56 35 97 27 59 31 77 22 89 -9 11 -9 15 0 18 7 3 13 9
13 14 0 14 92 149 101 149 16 0 9 30 -19 77 -15 27 -35 61 -44 78 -11 19 -44
44 -101 75 -102 54 -143 88 -162 133 -7 18 -26 45 -40 60 l-27 26 38 0 c22 -1
54 -10 73 -21 18 -10 36 -16 39 -13 3 3 0 5 -6 5 -7 0 -12 6 -12 14 0 8 -6 17
-12 19 -10 4 -10 6 0 6 7 1 24 -10 38 -24 28 -28 83 -59 91 -51 3 3 2 13 -2
23 -5 10 -7 22 -6 27 2 9 -18 265 -24 306 -2 14 -9 67 -16 119 -11 79 -14 90
-21 65 -5 -16 -9 -45 -9 -64 -1 -21 -9 -42 -20 -53 -20 -18 -21 -18 -45 8 -27
29 -30 36 -13 32 6 -1 14 4 17 12 3 10 0 12 -13 7 -15 -5 -16 -4 -5 9 16 19
21 75 7 75 -5 0 -7 -9 -4 -20 3 -11 2 -20 -2 -20 -4 0 -13 -17 -19 -39 -7 -21
-19 -45 -28 -52 -15 -12 -16 -10 -10 21 4 19 10 43 13 54 3 12 1 16 -6 12 -6
-4 -11 -16 -11 -26 0 -10 -5 -22 -11 -26 -6 -3 -9 -17 -6 -30 3 -15 0 -24 -9
-24 -19 0 -21 28 -8 93 11 54 3 90 -11 48 -10 -33 -46 -71 -66 -71 -12 0 -19
-7 -19 -21 0 -18 -2 -18 -26 8 -14 15 -30 38 -35 51 -5 13 -13 20 -19 17 -13
-8 -13 -4 6 40 20 48 12 70 -10 28 -16 -32 -36 -44 -36 -23 0 6 -6 10 -14 10
-8 0 -17 8 -20 18 -3 9 -19 23 -36 30 -17 8 -27 18 -23 24 4 7 -2 9 -16 5 -18
-4 -20 -3 -11 8 8 10 7 16 -6 23 -11 6 -15 17 -11 31 3 14 0 21 -10 21 -12 0
-13 10 -7 58 10 86 32 132 87 185 61 60 66 59 222 -17 118 -58 176 -78 193
-67 10 6 -13 122 -38 191 -5 14 -11 48 -14 76 -8 86 -52 244 -67 244 -5 0 -9
-21 -9 -46 0 -61 -33 -118 -62 -108 -13 4 -24 1 -29 -7 -6 -10 -9 -8 -9 8 0
28 -14 37 -30 18 -8 -10 -27 -15 -51 -13 -29 1 -43 -3 -54 -18 -14 -19 -14
-18 -15 3 0 27 -26 21 -35 -8 -4 -10 -15 -19 -25 -19 -10 0 -22 -4 -25 -10 -3
-5 -11 -10 -16 -10 -6 0 -7 5 -4 10 3 6 0 10 -7 10 -7 0 -23 -15 -36 -33 -12
-17 -36 -50 -52 -71 -23 -30 -30 -49 -30 -85 0 -25 -5 -53 -10 -61 -17 -27
-12 108 6 142 16 32 10 50 -21 54 -17 3 -20 -12 -5 -21 6 -3 10 -1 10 5 0 6 5
8 10 5 6 -4 -4 -18 -24 -33 -20 -15 -38 -35 -41 -44 -11 -32 -27 -20 -20 15 8
38 50 85 82 93 13 4 20 11 16 17 -4 6 2 8 15 5 14 -4 20 -2 16 4 -11 17 -72 1
-119 -31 -25 -17 -45 -26 -45 -21 0 6 5 10 12 10 6 0 8 3 5 7 -4 3 1 12 10 18
14 11 15 15 4 28 -7 9 -10 22 -6 29 4 7 -1 4 -9 -6 -9 -11 -16 -26 -16 -33 0
-7 -9 -17 -20 -23 -25 -13 -26 -7 -2 16 16 17 16 18 -2 11 -19 -8 -49 9 -41
23 3 4 -10 11 -28 14 -45 9 -77 38 -70 64 2 11 0 29 -5 39 -10 17 -11 17 -17
1 -4 -10 -11 -18 -17 -18 -5 0 -6 5 -3 10 3 6 2 10 -3 10 -5 0 -15 11 -22 25
-15 29 -1 55 31 55 11 0 19 4 19 9 0 14 -42 21 -62 10 -26 -14 -31 -7 -19 25
11 28 3 34 -18 14 -10 -11 -10 -8 -3 12 5 14 10 49 11 78 0 40 -3 52 -14 52
-10 0 -15 -10 -15 -30 0 -16 -4 -30 -8 -30 -12 0 -42 129 -42 181 0 57 -10 91
-24 86 -12 -4 -12 -6 -15 -77 -2 -56 -13 -39 -31 48 -14 67 -9 165 10 187 19
22 1 39 -20 20 -11 -10 -20 -12 -24 -6 -16 26 9 360 45 586 16 102 15 100 47
73 54 -46 232 -246 232 -262 0 -8 14 -31 30 -50 29 -32 31 -40 39 -162 6 -81
17 -154 30 -195 24 -76 82 -155 145 -198 89 -62 246 -92 376 -73 36 5 67 6 70
1 3 -5 12 0 20 11 8 11 19 20 24 20 5 0 2 -8 -6 -17 -8 -10 -20 -33 -27 -52
-11 -34 -11 -34 9 -16 11 10 17 21 15 25 -3 4 2 13 10 20 8 7 15 21 15 31 0
10 9 20 19 24 15 4 41 50 41 71 0 2 -38 -15 -85 -38 -77 -36 -96 -41 -178 -46
-141 -7 -242 27 -325 109 -55 54 -102 165 -102 239 0 53 28 159 51 197 l21 33
20 -25 c18 -23 46 -36 33 -16 -3 5 -1 13 5 16 6 4 10 3 9 -2 -4 -25 3 -41 21
-46 11 -3 20 -1 20 4 0 5 -5 9 -11 9 -6 0 -9 9 -6 20 3 13 -2 25 -15 34 -20
14 -19 15 11 31 18 9 29 20 26 24 -3 5 4 7 16 4 12 -3 25 0 29 7 5 8 10 2 15
-18 3 -17 19 -45 35 -62 56 -60 171 -30 187 51 5 25 9 28 30 23 14 -4 36 -17
50 -30 14 -13 30 -24 35 -24 5 0 7 -4 3 -9 -6 -11 15 -61 26 -61 5 0 6 7 2 16
-3 9 0 20 7 24 11 7 10 11 -3 24 -8 9 -20 16 -26 16 -6 0 -11 5 -11 10 0 6 6
10 14 10 20 0 68 -62 62 -82 -2 -11 2 -18 11 -18 12 0 14 10 12 44 -3 36 -2
42 10 33 7 -6 20 -13 30 -15 29 -6 56 -9 80 -11 22 -1 23 -4 18 -43 l-6 -43
29 62 c33 70 72 201 64 214 -3 5 2 16 10 25 9 8 16 25 16 37 -1 18 -4 15 -15
-12 -11 -23 -20 -31 -31 -27 -9 3 -19 6 -22 6 -4 0 0 5 8 11 12 9 11 9 -5 4
-11 -5 -32 -9 -47 -10 -14 -2 -31 -6 -36 -9 -6 -3 -25 3 -44 13 -43 26 -153
66 -203 75 -22 4 -56 16 -75 26 -72 37 -96 41 -206 37 -60 -3 -122 -10 -139
-17 -16 -6 -40 -9 -52 -5 -17 4 -37 -5 -73 -32 -48 -36 -61 -53 -41 -53 6 0
13 4 16 10 3 6 11 10 17 10 6 0 4 -8 -5 -18 -25 -27 -21 -33 11 -16 42 22 151
18 219 -8 36 -13 85 -22 128 -24 39 -1 86 -9 105 -17 33 -15 26 -16 -130 -10
-99 3 -211 1 -279 -6 -67 -7 -117 -8 -120 -3 -3 5 -23 29 -43 53 -54 65 -141
185 -178 246 l-32 53 32 50 c18 28 53 67 79 88 25 20 62 51 81 68 19 17 62 55
95 83 113 99 153 149 207 262 32 65 59 109 68 110 10 0 8 3 -5 9 -18 8 -17 9
8 9 17 1 27 6 27 17 0 8 5 12 10 9 6 -4 8 -11 5 -16 -4 -5 -1 -9 5 -9 7 0 14
9 17 20 3 11 9 20 14 20 5 0 15 11 21 25 15 33 30 33 18 0 -7 -18 -6 -24 3
-22 7 1 15 6 19 12 4 5 11 6 15 1 4 -4 -1 -14 -11 -22 -19 -13 -18 -14 10 -14
37 0 126 29 136 44 4 6 8 7 8 2 0 -5 10 -1 22 10 16 14 20 15 16 4 -4 -11 0
-16 13 -16 11 0 19 6 19 12 0 7 4 14 8 16 5 2 21 21 36 43 l27 40 -7 -40 c-3
-22 -7 -44 -8 -50 0 -5 39 -9 94 -10 88 0 99 -2 152 -32 67 -38 68 -39 68 -15
0 13 3 11 13 -7 18 -36 46 -50 60 -30 9 15 14 14 45 -7 45 -31 63 -30 102 2
21 19 34 24 42 16 10 -10 -42 -103 -85 -150 -15 -16 -20 -33 -18 -60 1 -27 -4
-45 -19 -62 -19 -22 -21 -32 -15 -80 10 -76 7 -187 -5 -210 -14 -27 -12 -34 5
-20 38 31 131 218 142 284 4 25 23 63 49 99 39 52 64 109 64 144 0 6 14 25 30
41 18 18 30 41 30 56 0 14 6 29 14 33 8 4 41 42 74 84 42 53 86 94 143 134
106 72 113 82 95 111 -15 21 -14 21 52 27 65 4 134 35 207 92 10 8 23 15 27
15 4 0 8 5 8 10 0 6 -8 10 -18 10 -10 0 -22 3 -26 7 -3 4 -15 8 -26 10 -27 4
-26 -27 1 -34 31 -8 3 -23 -44 -23 -45 0 -56 19 -33 55 12 19 25 25 52 25 19
0 51 7 71 15 43 18 63 14 63 -15 0 -20 24 -28 34 -11 3 4 34 14 68 20 35 7 80
17 100 23 32 9 41 8 56 -5 10 -10 29 -17 41 -17 12 0 43 -19 69 -43 35 -33 82
-58 185 -102 161 -67 217 -107 252 -176 14 -27 28 -49 30 -49 6 0 85 169 85
183 0 5 -7 4 -15 -3 -13 -11 -15 -8 -15 18 0 18 -14 51 -35 82 -19 29 -35 56
-35 60 0 5 -9 25 -21 44 -23 40 -30 139 -11 158 17 17 61 -1 86 -35 16 -22 21
-42 20 -88 0 -70 12 -78 22 -14 4 30 1 60 -9 90 -11 35 -11 43 -1 34 28 -23
46 -95 40 -158 -4 -34 -2 -61 3 -61 24 0 28 116 5 175 -27 70 -28 87 -9 102
11 7 25 13 32 13 25 0 53 -39 53 -73 0 -41 -8 -51 -27 -32 -24 24 -33 17 -21
-16 18 -51 2 -209 -35 -362 -23 -91 -31 -140 -24 -144 6 -4 31 16 57 44 l46
50 101 -5 c115 -5 157 5 198 48 21 22 32 27 49 21 11 -5 46 -12 76 -16 30 -4
67 -16 82 -26 14 -11 29 -19 32 -19 3 0 6 176 6 390 l0 390 -3200 0 -3200 0 0
-3200z m5500 2930 c0 -5 -9 -10 -20 -10 -11 0 -20 5 -20 10 0 6 9 10 20 10 11
0 20 -4 20 -10z m-604 -154 c10 -8 16 -18 12 -22 -10 -9 -58 12 -58 26 0 14
23 12 46 -4z m618 -48 c9 -12 16 -29 16 -37 0 -19 -28 7 -54 49 -18 32 -18 32
2 21 12 -6 28 -21 36 -33z m86 -43 c0 -19 9 -51 19 -72 21 -40 19 -93 -4 -93
-7 0 -18 14 -25 30 -7 17 -19 30 -26 30 -18 0 -18 9 0 29 14 16 9 94 -9 146
-5 16 -1 14 19 -8 17 -19 26 -39 26 -62z m336 8 c-11 -21 -15 -23 -16 -10 0
24 22 65 27 50 2 -6 -3 -24 -11 -40z m-8 -76 c4 -17 -25 -67 -39 -67 -19 0
-21 51 -3 71 20 22 37 20 42 -4z m94 -38 c-28 -25 -62 -39 -62 -25 0 9 85 64
90 59 3 -2 -10 -18 -28 -34z m-2747 -209 c3 -5 -1 -10 -10 -10 -9 0 -13 5 -10
10 3 6 8 10 10 10 2 0 7 -4 10 -10z m15 -60 c0 -5 -7 -7 -15 -4 -8 4 -15 8
-15 10 0 2 7 4 15 4 8 0 15 -4 15 -10z m-47 -7 c-7 -2 -19 -2 -25 0 -7 3 -2 5
12 5 14 0 19 -2 13 -5z m45 -49 c-2 -10 -15 -18 -30 -20 -41 -4 -68 -14 -68
-25 0 -5 -7 -9 -17 -9 -14 0 -14 2 3 21 13 16 15 20 4 16 -8 -3 -34 -11 -57
-18 -24 -6 -43 -17 -43 -25 0 -8 -4 -14 -8 -14 -5 0 -9 7 -9 16 0 23 58 44
138 51 38 3 69 10 69 14 0 5 5 9 11 9 6 0 9 -7 7 -16z m-18 -34 c0 -5 -4 -10
-10 -10 -5 0 -10 5 -10 10 0 6 5 10 10 10 6 0 10 -4 10 -10z m-25 -20 c0 -16
-72 -43 -80 -29 -5 8 2 10 30 9 12 -1 33 26 28 34 -3 5 0 7 8 4 8 -3 14 -11
14 -18z m-197 -35 c1 -18 -2 -23 -14 -18 -8 3 -21 -3 -29 -13 -17 -22 -20 -11
-4 17 6 11 17 18 24 15 9 -3 12 0 8 10 -3 7 -1 14 4 14 5 0 10 -11 11 -25z
m-1023 -892 c32 -71 60 -113 76 -113 6 0 8 9 4 20 -5 15 -3 18 9 14 8 -3 12
-12 9 -20 -4 -10 3 -14 21 -14 14 0 26 -1 26 -2 0 -2 7 -50 15 -108 8 -58 20
-203 27 -323 10 -198 10 -219 -5 -234 -19 -20 -39 -13 -123 43 -56 37 -78 72
-88 144 -4 25 -23 94 -42 154 -35 109 -35 110 -33 275 2 121 7 174 18 196 30
62 48 55 86 -32z m965 -227 c0 -8 -8 -14 -17 -14 -19 1 -138 -10 -188 -17
l-30 -5 34 16 c32 14 115 30 174 33 17 1 27 -4 27 -13z m40 4 c0 -5 -4 -10
-10 -10 -5 0 -10 5 -10 10 0 6 5 10 10 10 6 0 10 -4 10 -10z m118 -77 c-2 -10
-10 -18 -18 -18 -8 0 -16 8 -18 18 -2 12 3 17 18 17 15 0 20 -5 18 -17z m-380
-16 c4 -20 -25 -34 -39 -20 -14 14 1 45 20 41 9 -2 17 -11 19 -21z m629 -1323
c-3 -3 -12 -4 -19 -1 -8 3 -5 6 6 6 11 1 17 -2 13 -5z m-347 -440 c0 -8 -4
-12 -10 -9 -5 3 -10 10 -10 16 0 5 5 9 10 9 6 0 10 -7 10 -16z m55 -24 c3 -5
-1 -10 -10 -10 -9 0 -13 5 -10 10 3 6 8 10 10 10 2 0 7 -4 10 -10z m55 -54 c0
-2 -8 -10 -17 -17 -16 -13 -17 -12 -4 4 13 16 21 21 21 13z m292 -158 c-8 -8
-9 -4 -5 13 4 13 8 18 11 10 2 -7 -1 -18 -6 -23z m83 -1407 c3 -5 1 -12 -5
-16 -5 -3 -10 1 -10 9 0 18 6 21 15 7z m-40 -101 c3 -5 1 -10 -4 -10 -6 0 -11
5 -11 10 0 6 2 10 4 10 3 0 8 -4 11 -10z m-228 -177 c-3 -10 -5 -4 -5 12 0 17
2 24 5 18 2 -7 2 -21 0 -30z m13 -52 c0 -6 -4 -13 -10 -16 -5 -3 -10 1 -10 9
0 9 5 16 10 16 6 0 10 -4 10 -9z m30 -21 c0 -5 -5 -10 -11 -10 -5 0 -7 5 -4
10 3 6 8 10 11 10 2 0 4 -4 4 -10z m-50 -41 c0 -6 -4 -7 -10 -4 -5 3 -10 11
-10 16 0 6 5 7 10 4 6 -3 10 -11 10 -16z m40 -14 c0 -5 -5 -3 -10 5 -5 8 -10
20 -10 25 0 6 5 3 10 -5 5 -8 10 -19 10 -25z m7 -57 c-3 -8 -6 -5 -6 6 -1 11
2 17 5 13 3 -3 4 -12 1 -19z m-8 -38 c0 -9 -6 -4 -14 10 -19 33 -19 49 0 24 8
-10 14 -26 14 -34z"/>
<path d="M2010 4190 c0 -5 5 -10 11 -10 5 0 7 5 4 10 -3 6 -8 10 -11 10 -2 0
-4 -4 -4 -10z"/>
<path d="M3301 5344 c0 -11 3 -14 6 -6 3 7 2 16 -1 19 -3 4 -6 -2 -5 -13z"/>
<path d="M3348 5353 c7 -3 16 -2 19 1 4 3 -2 6 -13 5 -11 0 -14 -3 -6 -6z"/>
<path d="M3256 5325 c4 -8 8 -15 10 -15 2 0 4 7 4 15 0 8 -4 15 -10 15 -5 0
-7 -7 -4 -15z"/>
<path d="M3063 5304 c-10 -22 -10 -25 3 -20 9 3 22 6 30 6 12 0 12 4 2 20 -16
26 -21 25 -35 -6z"/>
<path d="M3155 5310 c-3 -5 -2 -10 4 -10 5 0 13 5 16 10 3 6 2 10 -4 10 -5 0
-13 -4 -16 -10z"/>
<path d="M3193 5305 c0 -8 3 -13 5 -10 3 3 10 -1 16 -8 6 -7 10 -10 9 -8 -2 2
3 11 10 19 10 13 9 15 -5 9 -10 -3 -18 -2 -18 3 0 6 -4 10 -8 10 -5 0 -9 -7
-9 -15z"/>
<path d="M3010 5290 c0 -5 7 -7 15 -4 8 4 15 8 15 10 0 2 -7 4 -15 4 -8 0 -15
-4 -15 -10z"/>
<path d="M3125 5280 c-3 -6 1 -7 9 -4 18 7 21 14 7 14 -6 0 -13 -4 -16 -10z"/>
<path d="M3010 5249 c0 -5 5 -7 10 -4 6 3 10 8 10 11 0 2 -4 4 -10 4 -5 0 -10
-5 -10 -11z"/>
<path d="M2955 5190 c-3 -5 1 -10 10 -10 9 0 13 5 10 10 -3 6 -8 10 -10 10 -2
0 -7 -4 -10 -10z"/>
<path d="M4475 5126 c-22 -13 -69 -30 -105 -36 -103 -19 -128 -39 -185 -150
-94 -184 -165 -389 -164 -470 0 -30 4 -24 25 40 41 124 74 202 113 264 69 113
155 190 203 185 13 -1 47 1 76 5 41 6 57 5 70 -7 9 -8 26 -18 38 -21 30 -9 90
-71 110 -115 9 -20 43 -65 74 -101 32 -36 70 -90 85 -120 31 -61 42 -73 100
-100 44 -21 115 -27 115 -9 0 7 10 9 25 5 37 -9 48 19 36 95 -12 72 -56 135
-150 214 -32 28 -66 66 -75 85 -34 74 -64 109 -146 171 -47 35 -98 70 -113 77
-42 18 -88 14 -132 -12z"/>
<path d="M6220 4747 c-47 -9 -103 -33 -200 -86 -144 -77 -181 -111 -290 -264
-49 -67 -48 -90 3 -124 64 -44 139 -24 205 54 29 35 56 55 89 68 26 9 73 35
104 56 37 25 81 44 124 54 38 9 85 25 107 36 l38 19 0 95 0 95 -29 0 c-16 0
-41 2 -57 4 -16 3 -58 -1 -94 -7z"/>
<path d="M4305 4126 c-48 -29 -83 -86 -91 -150 -5 -37 -2 -55 19 -99 48 -97
132 -131 221 -87 66 31 96 86 96 171 0 54 -5 73 -29 110 -49 79 -139 101 -216
55z"/>
<path d="M3255 3930 c-3 -6 1 -7 9 -4 18 7 21 14 7 14 -6 0 -13 -4 -16 -10z"/>
<path d="M4089 3769 c-8 -15 -15 -79 -19 -164 l-6 -140 -46 -91 c-26 -50 -71
-138 -101 -195 -103 -195 -165 -382 -188 -564 -21 -172 21 -306 115 -364 25
-16 66 -25 162 -35 79 -8 149 -22 182 -35 29 -11 73 -21 97 -21 24 0 64 -7 89
-15 24 -8 64 -15 88 -14 27 1 64 -8 101 -25 40 -18 75 -26 113 -26 41 0 63 -5
81 -20 16 -13 41 -20 67 -20 26 0 62 -11 99 -31 34 -18 91 -36 140 -45 65 -11
114 -30 237 -90 168 -83 237 -103 369 -103 137 -1 183 28 282 179 67 102 89
144 120 230 23 64 24 73 25 440 1 421 1 427 74 539 25 38 35 63 28 67 -28 17
-133 -176 -148 -272 -4 -32 -11 -183 -15 -334 -9 -385 -20 -431 -148 -622
-100 -147 -122 -146 -474 31 -274 138 -296 144 -453 116 -160 -28 -232 -13
-325 70 -68 61 -111 85 -148 85 -15 0 -41 10 -57 22 -28 20 -46 22 -271 30
-271 9 -313 18 -344 78 -57 110 35 480 196 786 62 119 70 140 83 230 21 143
30 308 18 329 -9 17 -11 16 -23 -6z"/>
<path d="M5870 3736 c-87 -44 -131 -159 -96 -251 59 -153 272 -159 349 -10 52
103 14 222 -85 265 -61 26 -112 25 -168 -4z"/>
<path d="M3343 3390 c0 -25 2 -35 4 -22 2 12 2 32 0 45 -2 12 -4 2 -4 -23z"/>
<path d="M3422 3280 c0 -14 2 -19 5 -12 2 6 2 18 0 25 -3 6 -5 1 -5 -13z"/>
<path d="M2695 3040 c-3 -5 -2 -10 4 -10 5 0 13 5 16 10 3 6 2 10 -4 10 -5 0
-13 -4 -16 -10z"/>
<path d="M2728 3034 c-3 -5 -3 -16 1 -26 5 -15 9 -14 33 6 25 19 26 22 8 22
-11 0 -20 -7 -21 -16 0 -10 -3 -9 -8 4 -4 11 -10 15 -13 10z"/>
<path d="M2860 2910 c0 -5 5 -10 11 -10 5 0 7 5 4 10 -3 6 -8 10 -11 10 -2 0
-4 -4 -4 -10z"/>
<path d="M2830 2896 c0 -2 7 -7 16 -10 8 -3 12 -2 9 4 -6 10 -25 14 -25 6z"/>
<path d="M3517 2819 c4 -13 8 -18 11 -10 2 7 -1 18 -6 23 -8 8 -9 4 -5 -13z"/>
<path d="M3520 2779 c0 -5 5 -7 10 -4 6 3 10 8 10 11 0 2 -4 4 -10 4 -5 0 -10
-5 -10 -11z"/>
<path d="M3542 2710 c0 -14 2 -19 5 -12 2 6 2 18 0 25 -3 6 -5 1 -5 -13z"/>
<path d="M3368 2579 c-10 -29 -12 -31 -19 -13 -4 10 -8 14 -8 7 -1 -7 -7 -10
-15 -7 -19 7 -32 -16 -15 -27 7 -4 10 -12 5 -16 -5 -4 -11 -2 -13 5 -3 6 -11
12 -19 12 -8 0 -14 5 -14 10 0 6 7 10 15 10 8 0 15 5 15 10 0 6 -7 10 -15 10
-8 0 -15 -5 -15 -10 0 -6 -11 -8 -26 -4 -19 5 -25 4 -20 -5 4 -6 14 -11 22
-11 8 0 14 -4 14 -8 0 -10 56 -43 62 -36 3 2 11 -10 18 -28 7 -18 26 -45 42
-59 23 -19 30 -34 30 -62 0 -20 4 -37 8 -37 4 0 23 16 43 36 l35 36 13 -31 c8
-17 19 -31 25 -31 27 0 43 142 25 225 -5 24 -12 31 -36 33 -17 2 -34 8 -39 13
-17 15 -49 11 -42 -6 7 -20 -9 -19 -39 1 -25 16 -25 16 -37 -17z"/>
<path d="M4396 2538 c3 -4 9 -8 15 -8 5 0 9 4 9 8 0 5 -7 9 -15 9 -8 0 -12 -4
-9 -9z"/>
<path d="M4430 2530 c0 -5 5 -10 11 -10 5 0 7 5 4 10 -3 6 -8 10 -11 10 -2 0
-4 -4 -4 -10z"/>
<path d="M4375 2520 c-3 -5 -1 -10 4 -10 6 0 11 5 11 10 0 6 -2 10 -4 10 -3 0
-8 -4 -11 -10z"/>
<path d="M4444 2489 c-28 -31 -22 -78 14 -111 35 -30 79 -37 88 -13 8 20 -40
117 -65 132 -16 10 -22 9 -37 -8z"/>
<path d="M4395 2489 c-4 -6 -5 -12 -2 -15 2 -3 7 2 10 11 7 17 1 20 -8 4z"/>
<path d="M5128 2343 c7 -3 16 -2 19 1 4 3 -2 6 -13 5 -11 0 -14 -3 -6 -6z"/>
<path d="M5095 2311 c-43 -27 -75 -59 -75 -76 0 -25 43 -46 79 -39 17 4 34 11
37 15 3 5 10 7 15 4 5 -4 9 1 9 10 0 8 5 24 11 34 7 10 9 30 5 44 -8 33 -37
36 -81 8z"/>
<path d="M5205 2290 c3 -5 11 -10 16 -10 6 0 7 5 4 10 -3 6 -11 10 -16 10 -6
0 -7 -4 -4 -10z"/>
<path d="M4610 2285 c0 -11 73 -75 85 -75 5 0 -4 12 -21 28 -49 44 -64 55 -64
47z"/>
<path d="M5200 2259 c0 -5 5 -7 10 -4 6 3 10 8 10 11 0 2 -4 4 -10 4 -5 0 -10
-5 -10 -11z"/>
<path d="M3522 2200 c-8 -13 -8 -20 -2 -20 6 0 13 7 17 15 9 24 -1 27 -15 5z"/>
<path d="M4798 2173 c12 -2 30 -2 40 0 9 3 -1 5 -23 4 -22 0 -30 -2 -17 -4z"/>
<path d="M4883 2173 c9 -2 23 -2 30 0 6 3 -1 5 -18 5 -16 0 -22 -2 -12 -5z"/>
<path d="M6349 2052 c-20 -20 -55 -62 -78 -92 -23 -30 -48 -64 -57 -75 -33
-43 -190 -247 -214 -278 -33 -45 -143 -189 -153 -202 -4 -5 -35 -46 -68 -90
-33 -44 -77 -97 -97 -118 -56 -58 -158 -122 -252 -157 -47 -18 -89 -36 -94
-40 -4 -5 4 -36 20 -69 37 -83 36 -130 -5 -213 l-32 -68 -47 70 c-25 39 -50
70 -54 70 -14 0 -9 -27 10 -51 49 -63 77 -143 81 -226 2 -49 -1 -83 -7 -83
-12 0 -86 50 -90 61 -2 5 -8 6 -13 3 -6 -3 15 -32 46 -65 63 -66 94 -126 95
-182 0 -49 -26 -94 -54 -95 -12 0 -34 -6 -51 -13 -16 -6 -35 -13 -40 -14 -64
-14 -258 -83 -285 -101 l-35 -24 763 0 762 0 0 1045 c0 575 -3 1045 -7 1044
-5 0 -24 -17 -44 -37z"/>
<path d="M4320 2070 c0 -5 5 -10 10 -10 6 0 10 5 10 10 0 6 -4 10 -10 10 -5 0
-10 -4 -10 -10z"/>
<path d="M4365 2070 c-3 -5 19 -10 48 -12 50 -4 65 -2 56 6 -9 8 -100 13 -104
6z"/>
<path d="M4280 2060 c19 -13 30 -13 30 0 0 6 -10 10 -22 10 -19 0 -20 -2 -8
-10z"/>
<path d="M4240 2053 c0 -5 -12 -14 -27 -20 -27 -10 -27 -11 -5 -12 27 -1 58
24 42 34 -5 3 -10 2 -10 -2z"/>
<path d="M4345 2040 c-3 -5 2 -10 12 -11 10 0 39 -1 66 -2 26 -2 47 1 47 5 0
4 -15 8 -32 9 -18 0 -45 3 -60 5 -14 2 -29 0 -33 -6z"/>
<path d="M4484 2041 c8 -13 46 -21 46 -9 0 6 9 8 20 5 11 -3 18 -1 14 4 -3 5
-23 9 -45 9 -22 0 -38 -4 -35 -9z"/>
<path d="M4265 2017 c-22 -5 -45 -17 -51 -26 -10 -13 -14 -13 -28 -2 -9 8 -19
11 -23 7 -3 -3 -1 -6 6 -6 9 0 12 -9 9 -25 -5 -22 -3 -24 11 -13 9 7 24 20 34
30 9 9 35 22 57 28 22 6 40 13 40 15 0 6 -6 5 -55 -8z"/>
<path d="M4588 2023 c7 -3 16 -2 19 1 4 3 -2 6 -13 5 -11 0 -14 -3 -6 -6z"/>
<path d="M4632 2008 c-16 -16 -15 -29 1 -27 18 3 71 -13 78 -24 4 -5 9 -5 13
2 4 6 2 11 -3 11 -6 0 -11 4 -11 9 0 4 12 7 28 5 27 -4 27 -4 2 5 -14 5 -42 9
-63 10 -23 1 -36 5 -32 11 8 14 2 13 -13 -2z"/>
<path d="M4778 1963 c7 -3 16 -2 19 1 4 3 -2 6 -13 5 -11 0 -14 -3 -6 -6z"/>
<path d="M4740 1951 c0 -5 11 -12 25 -15 14 -4 23 -11 20 -16 -3 -6 2 -10 13
-10 36 0 32 13 -9 32 -47 21 -49 21 -49 9z"/>
<path d="M4863 1933 c-13 -2 -23 -9 -23 -14 0 -6 9 -7 23 -3 12 4 32 8 44 9
13 1 26 5 30 8 7 7 -37 7 -74 0z"/>
<path d="M5300 1685 c-23 -25 -113 -63 -210 -89 -30 -8 -75 -22 -100 -32 -25
-9 -65 -22 -90 -29 -101 -30 -155 -54 -138 -60 9 -4 23 -3 30 1 7 5 36 17 63
27 50 18 77 26 230 66 82 22 190 66 213 89 7 6 10 12 6 12 -4 0 1 9 11 20 26
29 13 25 -15 -5z"/>
<path d="M4694 1444 c-10 -8 -13 -12 -6 -9 8 4 26 11 40 15 22 7 23 8 6 9 -11
1 -29 -6 -40 -15z"/>
<path d="M4563 1422 c-15 -9 -13 -52 2 -52 6 0 15 4 21 9 5 5 24 13 43 18 54
14 51 33 -6 33 -26 0 -53 -4 -60 -8z"/>
<path d="M3800 1345 c6 -8 9 -19 5 -25 -3 -5 -2 -10 4 -10 18 0 21 18 5 34
-19 20 -31 21 -14 1z"/>
<path d="M3745 1279 c-11 -16 -1 -19 13 -3 7 8 8 14 3 14 -5 0 -13 -5 -16 -11z"/>
<path d="M4360 1218 c-11 -12 -20 -25 -20 -30 0 -17 17 -7 38 22 26 35 13 41
-18 8z"/>
<path d="M4320 1152 c-19 -9 -37 -20 -40 -23 -3 -3 -12 -9 -20 -13 -14 -6 9
-2 55 10 11 3 31 7 45 10 32 7 38 13 20 24 -19 12 -18 12 -60 -8z"/>
<path d="M3530 945 c7 -8 17 -12 22 -9 6 4 5 10 -3 15 -22 14 -33 10 -19 -6z"/>
<path d="M3563 925 c-19 -21 -16 -27 7 -15 11 6 20 15 20 20 0 14 -13 12 -27
-5z"/>
<path d="M3523 892 c1 -12 6 -18 15 -15 7 3 10 9 5 12 -4 3 -11 10 -15 15 -4
4 -6 -1 -5 -12z"/>
<path d="M3705 750 c-9 -16 -11 -30 -6 -30 5 0 14 14 20 30 5 17 8 30 6 30 -3
0 -11 -13 -20 -30z"/>
<path d="M4510 735 c-19 -7 -28 -14 -20 -14 8 0 29 6 45 14 39 17 21 18 -25 0z"/>
<path d="M3666 664 c-18 -54 -20 -74 -7 -74 5 0 12 19 16 43 4 23 11 44 16 47
4 3 4 11 0 19 -6 9 -14 -2 -25 -35z"/>
<path d="M3216 585 c-9 -26 -7 -32 5 -12 6 10 9 21 6 23 -2 3 -7 -2 -11 -11z"/>
<path d="M3636 563 c-3 -10 -9 -24 -12 -30 -9 -20 10 -15 23 5 6 11 8 24 3 31
-5 9 -9 8 -14 -6z"/>
<path d="M5175 560 c-3 -5 -2 -10 4 -10 5 0 13 5 16 10 3 6 2 10 -4 10 -5 0
-13 -4 -16 -10z"/>
<path d="M5210 520 c0 -5 5 -10 11 -10 5 0 7 5 4 10 -3 6 -8 10 -11 10 -2 0
-4 -4 -4 -10z"/>
<path d="M5268 474 c6 -3 10 -9 8 -13 -3 -4 2 -8 10 -8 21 0 11 22 -12 24 -10
2 -13 0 -6 -3z"/>
<path d="M3610 459 c0 -5 5 -7 10 -4 6 3 10 8 10 11 0 2 -4 4 -10 4 -5 0 -10
-5 -10 -11z"/>
<path d="M3975 260 c3 -5 8 -10 11 -10 2 0 4 5 4 10 0 6 -5 10 -11 10 -5 0 -7
-4 -4 -10z"/>
<path d="M3995 230 c3 -5 8 -10 11 -10 2 0 4 5 4 10 0 6 -5 10 -11 10 -5 0 -7
-4 -4 -10z"/>
<path d="M5277 183 c-12 -12 -7 -22 8 -17 8 4 15 10 15 15 0 11 -14 12 -23 2z"/>
<path d="M5220 160 c0 -5 7 -10 15 -10 8 0 15 5 15 10 0 6 -7 10 -15 10 -8 0
-15 -4 -15 -10z"/>
<path d="M4150 10 c0 -13 11 -13 30 0 12 8 11 10 -7 10 -13 0 -23 -4 -23 -10z"/>
</g>
</svg>
